<svg width="24" height="24" viewBox="0 0 24 24" fill="none" xmlns="http://www.w3.org/2000/svg">
<path d="M21.9844 7.5H11.8125L7.07812 0.774191C6.89062 0.451611 6.625 0.274191 6.28125 0.241933C5.9375 0.209675 5.60938 0.322579 5.29688 0.580643C4.82812 1.09677 4.79688 1.6129 5.20312 2.12903L8.90625 7.5H2.01562C1.45312 7.5 0.976562 7.70161 0.585938 8.10484C0.195312 8.50806 0 8.98387 0 9.53226V10.5968C0 11.5 0.40625 12.1129 1.21875 12.4355L3.98438 21.1935C4.10938 21.6452 4.35938 22.0564 4.73438 22.4274C5.10938 22.7984 5.53125 22.9839 6 22.9839H18C18.4688 22.9839 18.8906 22.7984 19.2656 22.4274C19.6406 22.0564 19.8906 21.6452 20.0156 21.1935L22.7812 12.5323C23.5938 12.2097 24 11.5968 24 10.6935V9.62903C24 9.01613 23.8047 8.50806 23.4141 8.10484C23.0234 7.70161 22.5469 7.5 21.9844 7.5ZM2.01562 9.53226H10.4062L11.1094 10.5C11.1719 10.5 11.2031 10.5323 11.2031 10.5968H2.01562V9.53226ZM18.0938 20.6129V20.7097C18.0938 20.7419 18.0781 20.7742 18.0469 20.8064C18.0156 20.8387 18 20.871 18 20.9032H6.09375C6.03125 20.9032 6 20.8387 6 20.7097L3.42188 12.629H20.5781L18.0938 20.6129ZM12.8906 10.5968C13.1094 10.2097 13.2188 9.85484 13.2188 9.53226H21.9844V10.5968H12.8906ZM6.98438 19.0645C7.01562 19.2903 7.14062 19.4839 7.35938 19.6452C7.57812 19.8065 7.79688 19.8871 8.01562 19.8871H8.20312C8.45312 19.8226 8.65625 19.6613 8.8125 19.4032C8.96875 19.1452 9 18.8871 8.90625 18.629L7.92188 14.5161C7.85938 14.2581 7.70312 14.0484 7.45312 13.8871C7.20312 13.7258 6.95312 13.6935 6.70312 13.7903C6.45312 13.8548 6.25 14.0161 6.09375 14.2742C5.9375 14.5323 5.90625 14.7742 6 15L6.98438 19.0645ZM15.7969 19.8871H15.9844C16.2031 19.8871 16.4219 19.8065 16.6406 19.6452C16.8594 19.4839 16.9844 19.2903 17.0156 19.0645L18 14.9032C18.0625 14.6452 18.0234 14.3871 17.8828 14.129C17.7422 13.871 17.5469 13.7258 17.2969 13.6935C16.6406 13.5645 16.2344 13.8064 16.0781 14.4194L15.0938 18.5323C14.9062 19.1774 15.1406 19.629 15.7969 19.8871ZM12 19.8871C12.6562 19.8871 12.9844 19.5323 12.9844 18.8226V14.7097C12.9844 14.0323 12.6562 13.6935 12 13.6935C11.3438 13.6935 11.0156 14.0323 11.0156 14.7097V18.8226C11.0156 19.5323 11.3438 19.8871 12 19.8871Z" fill="white"/>
</svg>
