<svg width="32" height="32" viewBox="0 0 32 32" fill="none" xmlns="http://www.w3.org/2000/svg">
<path d="M20.296 3.0544C20.0368 3.1792 19.9088 3.456 19.952 3.8C19.9696 3.9376 20.0208 4.1792 20.064 4.3232C20.1712 4.6848 20.3168 5.1296 20.352 5.208C20.36 5.2256 20.3904 5.312 20.4208 5.4C20.4912 5.6064 20.5728 5.8192 20.6016 5.8768C20.6144 5.9024 20.6288 5.9504 20.6336 5.9824C20.6432 6.0416 20.64 6.0448 20.568 6.0896C20.4672 6.152 20.3008 6.296 20.24 6.3696C20.2128 6.4048 20.1792 6.432 20.1664 6.432C20.1536 6.432 20.0944 6.3936 20.0352 6.3456C19.816 6.1712 19.6864 6.0928 19.48 6.0112C18.704 5.7072 17.9696 6.0768 17.872 6.8208C17.8512 6.9808 17.8512 7.1376 17.8736 7.32C17.9088 7.6256 18.0464 8.0112 18.2496 8.368C18.2608 8.3904 18.272 8.4256 18.272 8.4464C18.272 8.4848 18.272 8.4848 18.1408 8.4736C18.0672 8.4672 17.8288 8.4528 17.608 8.44C17.3888 8.4272 17.104 8.4096 16.976 8.4C16.3296 8.3536 14.048 8.3536 13.448 8.4C13.3344 8.4096 13.1216 8.424 12.976 8.432C12.8304 8.4416 12.6256 8.456 12.52 8.464C12.0192 8.5072 11.7776 8.5296 11.6896 8.5424C11.6352 8.5504 11.5232 8.5616 11.44 8.568C11.3568 8.5728 11.2048 8.5872 11.104 8.6C11.0032 8.6128 10.808 8.6384 10.672 8.6544C10.536 8.672 10.3696 8.6912 10.304 8.696C10.2384 8.7008 10.1488 8.712 10.104 8.72C10.0608 8.728 9.93436 8.7456 9.82396 8.76C9.43196 8.8064 8.95516 8.872 8.71516 8.912C8.21436 8.9952 8.13116 9.0096 8.07196 9.024C8.03676 9.0336 7.96796 9.048 7.91996 9.0576C7.71356 9.096 7.50716 9.1392 7.44796 9.1552C7.41276 9.1648 7.34396 9.1824 7.29596 9.192C7.15676 9.224 6.84316 9.3136 6.70396 9.36C6.43676 9.4512 6.30076 9.5024 6.23676 9.536C6.20476 9.5536 6.16956 9.568 6.15996 9.568C6.15036 9.568 6.05116 9.6128 5.93916 9.6672C5.12796 10.064 4.54876 10.5824 4.11196 11.3024C4.03196 11.4352 3.85756 11.7808 3.79516 11.9312C3.77596 11.9776 3.74556 12.0496 3.72796 12.0912C3.66076 12.2592 3.53436 12.6816 3.47356 12.944C3.40316 13.256 3.39196 13.3104 3.37596 13.432C3.36636 13.5024 3.35196 13.584 3.34396 13.616C3.33596 13.6464 3.32476 13.7296 3.31996 13.8C3.31356 13.8704 3.29916 13.9968 3.28796 14.08C3.20636 14.64 3.20636 16.2224 3.28796 17.08C3.30076 17.2112 3.31516 17.3808 3.31996 17.456C3.32636 17.5312 3.33916 17.6704 3.35196 17.768C3.36476 17.864 3.37916 17.9936 3.38396 18.056C3.39036 18.1168 3.40476 18.232 3.41756 18.312C3.45116 18.5248 3.44956 18.5328 3.36796 18.624C3.32956 18.6672 3.29116 18.7168 3.28156 18.7328C3.24156 18.8064 3.21436 18.984 3.19196 19.304C3.17756 19.496 3.16476 19.6576 3.15996 19.664C3.15676 19.6688 3.14556 19.8 3.13596 19.9536C3.12636 20.1072 3.11196 20.2832 3.10396 20.3456C3.09596 20.4096 3.08156 20.5744 3.07196 20.7136C3.06396 20.8544 3.04636 21.072 3.03196 21.2C3.01916 21.328 3.00156 21.544 2.99196 21.68C2.98236 21.816 2.96796 21.9312 2.95836 21.9328C2.94076 21.9392 2.93916 22.048 2.95676 22.048C2.96476 22.048 2.97916 22.0864 2.99036 22.1312C3.04316 22.3376 3.23996 22.4848 3.46396 22.4816C3.52636 22.4816 3.62716 22.4704 3.68796 22.4576C3.75036 22.4432 3.82716 22.432 3.85916 22.432C3.89116 22.432 3.97116 22.4208 4.03516 22.408C4.09916 22.3936 4.20956 22.376 4.27996 22.368C4.40476 22.3552 4.60636 22.3248 4.87996 22.2784C4.95516 22.2656 5.07036 22.248 5.13596 22.2416C5.37436 22.2128 5.57756 22.1712 5.64796 22.136C5.80796 22.0544 5.91996 21.8784 5.91996 21.7056C5.91996 21.64 5.88156 21.5008 5.83516 21.392C5.78396 21.2704 5.73916 21.16 5.58396 20.76C5.49436 20.5312 5.41436 20.3328 5.40796 20.3184C5.39996 20.304 5.37116 20.232 5.34396 20.1584C5.28796 20.0144 5.27036 19.9712 5.21756 19.8512C5.19996 19.8096 5.18396 19.7664 5.18396 19.7568C5.18396 19.7472 5.16956 19.7104 5.15356 19.6736C5.13596 19.6368 5.10236 19.5568 5.07996 19.496C5.05596 19.4336 5.02716 19.3616 5.01436 19.3328C5.00156 19.3056 4.99196 19.2768 4.99196 19.2688C4.99036 19.2624 4.97756 19.2272 4.95996 19.192C4.94236 19.1568 4.92956 19.1168 4.92796 19.104C4.92796 19.0896 4.91836 19.0656 4.90556 19.048C4.89436 19.0304 4.87516 18.9888 4.86396 18.9552C4.85276 18.92 4.83516 18.8736 4.82236 18.8512C4.80956 18.8272 4.79996 18.8 4.79996 18.7888C4.79996 18.7472 4.71036 18.5984 4.64796 18.5344C4.61116 18.4976 4.54716 18.4528 4.50556 18.4336C4.41276 18.3936 4.39036 18.344 4.37596 18.1504C4.36956 18.072 4.35516 17.9472 4.34396 17.872C4.33116 17.7968 4.31356 17.6352 4.30396 17.512C4.29596 17.3888 4.28156 17.248 4.27356 17.2C4.26556 17.152 4.25436 17.0256 4.24796 16.92C4.24316 16.8144 4.22716 16.5872 4.21276 16.416C4.18396 16.0384 4.17916 14.856 4.20636 14.576C4.21756 14.4752 4.23196 14.3056 4.23996 14.2C4.25916 13.96 4.30236 13.6784 4.36956 13.352C4.42716 13.064 4.46076 12.944 4.54716 12.688C4.57276 12.6128 4.60476 12.52 4.61756 12.48C4.63036 12.4416 4.64796 12.4016 4.65596 12.3936C4.66556 12.384 4.67196 12.368 4.67196 12.3584C4.67196 12.3296 4.80956 12.0464 4.89756 11.8928C5.19356 11.3808 5.61116 10.9584 6.11516 10.664C6.23516 10.5936 6.53596 10.4512 6.54716 10.4576C6.57436 10.4752 6.55676 10.5168 6.47356 10.6448C6.25276 10.9824 6.08316 11.3248 5.89756 11.8C5.78876 12.0784 5.72316 12.2656 5.68796 12.392C5.67516 12.4352 5.65116 12.5216 5.63356 12.584C5.59196 12.728 5.51516 13.0384 5.47356 13.232C5.40156 13.576 5.39036 13.6304 5.37436 13.76C5.36636 13.8352 5.35196 13.9216 5.34396 13.952C5.33596 13.9824 5.32636 14.0656 5.31996 14.136C5.31356 14.2064 5.29916 14.3424 5.28636 14.44C5.23196 14.856 5.23196 16.0832 5.28636 16.5008C5.29916 16.6 5.31516 16.7232 5.31996 16.776C5.35516 17.1184 5.49116 17.7296 5.61756 18.112C5.68956 18.3312 5.69756 18.352 5.76476 18.512C5.99196 19.056 6.27516 19.4944 6.60796 19.8128C6.85596 20.0512 7.05756 20.1824 7.42716 20.3488L7.50236 20.3824L7.50716 21.8592C7.51356 23.1536 7.51676 23.36 7.54236 23.536C7.63676 24.216 7.80796 24.712 8.20316 25.44C8.24796 25.5232 8.78876 26.472 8.83996 26.56C8.86876 26.608 9.19196 27.2624 9.23196 27.352C9.26396 27.424 9.42716 27.84 9.47036 27.96C9.56636 28.224 9.59036 28.2736 9.65916 28.3424C9.69916 28.3808 9.76156 28.424 9.80156 28.44C9.83996 28.4544 9.87196 28.4736 9.87196 28.4816C9.87196 28.4896 10.5248 28.496 11.504 28.496C12.4368 28.496 13.136 28.4896 13.136 28.4816C13.136 28.4736 13.176 28.448 13.224 28.424C13.4352 28.3216 13.5408 28.0544 13.456 27.84C13.424 27.7568 13.2768 27.4928 13.1712 27.328C13.1408 27.28 13.0992 27.2144 13.08 27.184C12.8112 26.7536 12.4832 26.3008 12.1776 25.9392C12.0928 25.8384 11.9536 25.656 11.8672 25.5312C11.7808 25.4064 11.6928 25.2784 11.672 25.248C11.6512 25.2176 11.5936 25.1344 11.544 25.064C11.4128 24.8768 11.2032 24.5632 11.1744 24.5136C11.1616 24.4912 11.1392 24.4528 11.1232 24.4288C11.1088 24.4064 11.0688 24.3408 11.0352 24.2848C11.0016 24.2304 10.9344 24.1184 10.8864 24.04L10.7984 23.896L10.8096 23.744C10.8144 23.6608 10.8256 23.5568 10.8336 23.512C10.8416 23.4688 10.856 23.368 10.864 23.288C10.8832 23.1216 10.9168 22.9184 10.9616 22.712C10.9792 22.632 10.992 22.5536 10.992 22.536C10.992 22.5168 11.0032 22.4592 11.0176 22.408C11.032 22.3552 11.0528 22.2688 11.0656 22.216C11.1232 21.9712 11.152 21.8544 11.184 21.744C11.2016 21.6784 11.2272 21.5872 11.24 21.544C11.2656 21.4512 11.3056 21.328 11.336 21.248C11.4784 20.8624 11.496 20.8336 11.5728 20.8464C11.5792 20.848 11.6944 20.856 11.8288 20.864C11.9616 20.8736 12.1232 20.888 12.184 20.8976C12.2464 20.9056 12.44 20.9232 12.616 20.936C12.792 20.9488 13.0368 20.9664 13.16 20.9744C14.016 21.0384 15.4896 21.056 16.4688 21.0176C16.84 21.0016 17.24 20.9792 17.3584 20.9664C17.6272 20.9376 17.688 20.9376 17.712 20.968C17.736 20.9968 17.784 21.1808 17.816 21.3568C17.8288 21.4288 17.8432 21.4944 17.848 21.5024C17.8656 21.5312 17.9216 22.0672 17.936 22.336C17.944 22.4896 17.9504 23.256 17.952 24.04C17.9536 24.8224 17.96 25.5504 17.968 25.656C17.976 25.7616 17.9904 25.9888 18 26.16C18.008 26.3312 18.0272 26.608 18.04 26.776C18.0512 26.9424 18.0672 27.1984 18.072 27.344C18.088 27.8032 18.1232 28.1408 18.1616 28.2144C18.2096 28.3088 18.3136 28.4096 18.3936 28.44C18.432 28.4544 18.464 28.4736 18.464 28.4816C18.464 28.4896 19.0096 28.496 19.824 28.496C20.5728 28.496 21.184 28.4896 21.184 28.4832C21.184 28.4752 21.2208 28.4528 21.264 28.4336C21.3616 28.3888 21.4688 28.2704 21.5072 28.1648C21.5376 28.0768 21.544 27.9424 21.52 27.8576C21.5056 27.8048 21.4928 27.7392 21.432 27.44C21.4208 27.3824 21.392 27.2496 21.368 27.144C21.344 27.0384 21.3216 26.9344 21.3184 26.912C21.3136 26.8896 21.296 26.8032 21.2784 26.72C21.2592 26.6368 21.2304 26.4992 21.2128 26.416C21.1952 26.3328 21.168 26.2032 21.152 26.128C21.136 26.0528 21.1152 25.952 21.1056 25.904C21.0976 25.856 21.0848 25.5488 21.08 25.224C21.0656 24.3728 21.0416 20.3248 21.0512 20.2912C21.0544 20.2768 21.0992 20.2384 21.1488 20.208C21.48 20.0032 21.8224 19.6576 22.0736 19.272C22.2192 19.0496 22.3744 18.7488 22.4672 18.512C22.4928 18.4464 22.5184 18.3808 22.5248 18.368C22.5392 18.3408 22.6512 17.992 22.712 17.784C22.7664 17.6 22.792 17.5376 22.8704 17.4C23.0384 17.1056 23.224 16.9184 23.896 16.376C24.6448 15.7712 24.9696 15.4304 25.1584 15.0512C25.2048 14.9568 25.2704 14.8944 25.344 14.872C25.3664 14.8656 25.4096 14.8464 25.44 14.8304C25.4704 14.8128 25.5008 14.8 25.5072 14.8C25.5248 14.8 25.8528 14.6096 25.9408 14.5488C26.4032 14.2256 26.68 13.8576 26.8352 13.36C26.8688 13.2512 26.872 13.2112 26.872 12.928C26.872 12.6432 26.8688 12.6064 26.8336 12.504C26.7232 12.1744 26.6448 12.024 26.4832 11.824C26.416 11.7408 26.4128 11.7344 26.424 11.6576C26.4288 11.6144 26.4416 11.5648 26.4512 11.5472C26.4592 11.5312 26.48 11.472 26.496 11.4176C26.512 11.3648 26.5504 11.2336 26.5808 11.128C26.6112 11.0224 26.648 10.8992 26.6608 10.856C26.6736 10.8112 26.7008 10.7216 26.72 10.656C26.8096 10.3552 26.8176 10.336 26.8832 10.2928C26.9184 10.272 26.9584 10.2496 26.9728 10.2448C26.9872 10.24 27.0096 10.2272 27.0224 10.2176C27.0336 10.208 27.0896 10.1744 27.144 10.144C27.896 9.7248 28.4544 9.2544 28.88 8.68C29.168 8.2896 29.3776 7.8272 29.4416 7.4384C29.4528 7.3728 29.4704 7.3216 29.4832 7.3168C29.5136 7.304 29.5136 6.8224 29.4816 6.8112C29.4704 6.8064 29.4512 6.7568 29.4416 6.7008C29.4128 6.5584 29.3104 6.3568 29.208 6.2432C28.8608 5.8608 28.2512 5.7968 27.696 6.0848C27.5456 6.1632 27.4096 6.2528 27.2928 6.3536C27.2432 6.3968 27.192 6.432 27.1776 6.432C27.1648 6.432 27.0944 6.3728 27.0208 6.2992C26.9472 6.2256 26.8464 6.1376 26.7968 6.1056C26.7456 6.072 26.704 6.0368 26.704 6.0272C26.704 6.0064 26.8096 5.7232 26.8352 5.6736C26.8432 5.6576 26.8608 5.6144 26.872 5.5776C26.8928 5.5136 26.992 5.2352 27.0576 5.056C27.0896 4.9712 27.1312 4.84 27.176 4.688C27.1872 4.648 27.2032 4.5984 27.2128 4.576C27.248 4.4896 27.336 4.1696 27.3712 3.992C27.4688 3.5168 27.3552 3.1904 27.0448 3.048C26.8432 2.9568 26.328 3.016 25.9056 3.1792C25.848 3.2016 25.7904 3.2256 25.7776 3.232C25.7632 3.24 25.7056 3.2688 25.648 3.2976C24.9968 3.6192 24.3872 4.416 24.08 5.344C24.0608 5.4016 24.0336 5.4576 24.0192 5.4672C24.0016 5.4832 23.904 5.488 23.6688 5.488C23.2944 5.488 23.3264 5.5024 23.2624 5.304C23.2432 5.2416 23.216 5.1776 23.2048 5.16C23.1936 5.1424 23.184 5.12 23.184 5.1072C23.184 5.072 22.952 4.5824 22.896 4.496C22.88 4.4736 22.8368 4.4048 22.7984 4.344C22.688 4.1664 22.4784 3.9056 22.3168 3.7472C22.1792 3.6144 21.9248 3.4096 21.848 3.3728C21.8304 3.3648 21.7872 3.3408 21.752 3.32C21.4464 3.1376 21.024 3.0224 20.624 3.0128C20.3952 3.008 20.3904 3.008 20.296 3.0544ZM21.1952 4.1376C21.5408 4.3008 21.8528 4.6224 22.08 5.048C22.1824 5.24 22.1872 5.2496 22.224 5.336C22.2432 5.3792 22.2704 5.4384 22.2832 5.4672C22.2976 5.496 22.304 5.528 22.2992 5.5408C22.2944 5.5552 22.216 5.5744 22.0704 5.5984C21.9472 5.6176 21.8064 5.6448 21.7568 5.6576C21.576 5.7024 21.584 5.7072 21.496 5.4832C21.4544 5.376 21.3952 5.2256 21.3664 5.1504C21.336 5.0752 21.304 4.9936 21.296 4.9664C21.288 4.9408 21.248 4.8256 21.208 4.712C21.088 4.3712 21.0192 4.1328 21.0304 4.1008C21.0432 4.0704 21.0624 4.0736 21.1952 4.1376ZM26.3184 4.136C26.3232 4.1792 26.2496 4.424 26.1552 4.688C26.0912 4.8656 26.0832 4.8896 26.04 5.008C26.016 5.0736 25.9728 5.1888 25.944 5.264C25.9152 5.3392 25.8704 5.456 25.8464 5.5264C25.784 5.6976 25.768 5.7056 25.5984 5.6656C25.5248 5.648 25.3856 5.6224 25.288 5.6064C25.192 5.592 25.0992 5.5728 25.0848 5.5648C25.0336 5.5392 25.04 5.5232 25.1856 5.224C25.4448 4.6944 25.7632 4.3312 26.128 4.152C26.176 4.1296 26.2272 4.1024 26.24 4.096C26.2816 4.0704 26.312 4.0864 26.3184 4.136ZM24.296 6.48C24.728 6.5072 25.3168 6.5872 25.544 6.6496C25.5888 6.6608 25.664 6.6816 25.712 6.6944C25.9024 6.744 25.9664 6.7664 26.096 6.8272C26.2496 6.8992 26.3504 6.9888 26.4032 7.1024C26.496 7.304 26.4304 7.8912 26.2224 8.7216C26.2064 8.7888 26.192 8.8592 26.192 8.8768C26.192 8.896 26.1808 8.944 26.1664 8.984C26.1536 9.0256 26.136 9.096 26.1264 9.1408C26.1184 9.1872 26.0928 9.288 26.0704 9.368C26.048 9.4464 26.0208 9.552 26.008 9.6C25.9968 9.648 25.9536 9.8 25.912 9.936C25.872 10.072 25.8288 10.2192 25.816 10.264C25.7648 10.4464 25.728 10.5744 25.696 10.68C25.6768 10.7408 25.648 10.8384 25.6336 10.896C25.5824 11.0832 25.5584 11.1008 25.4432 11.0416C25.4112 11.024 25.3488 10.9968 25.304 10.9792C25.232 10.9504 25.1792 10.9296 24.992 10.864C24.9616 10.8528 24.896 10.8352 24.848 10.824C24.8 10.8128 24.7136 10.792 24.656 10.7776C24.2688 10.688 23.84 10.656 23.3632 10.6848C23.0432 10.7024 22.92 10.7216 22.592 10.8016C22.2912 10.8752 22.1264 10.9296 21.9328 11.0208C21.8736 11.0496 21.8112 11.072 21.7936 11.072C21.7616 11.072 21.744 11.0272 21.6448 10.696C21.6272 10.6336 21.6016 10.5584 21.5904 10.528C21.5776 10.4976 21.5616 10.4432 21.5536 10.408C21.5376 10.3456 21.504 10.232 21.4704 10.136C21.4608 10.1088 21.44 10.0416 21.424 9.984C21.4096 9.9264 21.3808 9.8288 21.3648 9.768C21.2912 9.512 21.2592 9.3952 21.24 9.312C21.2304 9.264 21.2128 9.1952 21.2032 9.16C21.1408 8.9312 20.9728 8.144 20.944 7.952C20.88 7.52 20.872 7.2944 20.9184 7.1456C20.96 7.0128 21.0672 6.9072 21.248 6.8208C21.3232 6.7856 21.4096 6.7504 21.44 6.744C21.4704 6.7376 21.5136 6.7232 21.536 6.712C21.5584 6.7008 21.6048 6.688 21.64 6.6816C21.6752 6.6752 21.7408 6.6608 21.784 6.648C22.0032 6.5872 22.5824 6.5072 22.976 6.4832C23.3008 6.4624 23.9888 6.4608 24.296 6.48ZM28.4752 6.9152C28.5152 6.96 28.5152 7.1856 28.4752 7.328C28.4304 7.4848 28.3664 7.6448 28.3088 7.7488C28.28 7.8016 28.256 7.848 28.256 7.8528C28.256 7.8592 28.2224 7.9104 28.1824 7.968C28.1424 8.0256 28.0928 8.0976 28.0736 8.128C28.0176 8.2128 27.7808 8.4736 27.6464 8.5984C27.4576 8.7744 27.2336 8.9472 27.2064 8.9376C27.1776 8.9264 27.1776 8.9072 27.2144 8.7488C27.2944 8.4096 27.3552 8.0912 27.376 7.904C27.4 7.6832 27.4144 7.6464 27.5216 7.5104C27.8928 7.0448 28.3392 6.7648 28.4752 6.9152ZM19.128 6.9136C19.1696 6.9312 19.248 6.9776 19.3024 7.0128C19.4208 7.0944 19.7584 7.4272 19.8592 7.5632C19.9312 7.6608 19.9328 7.664 19.9424 7.8192C19.9488 7.9056 19.9616 8.0032 19.9696 8.0384C19.9792 8.072 19.9968 8.1616 20.008 8.2384C20.032 8.3936 20.0864 8.6512 20.112 8.736C20.12 8.7664 20.128 8.8224 20.128 8.8608C20.128 8.92 20.1232 8.9296 20.0976 8.9248C20.0624 8.92 19.7872 8.6944 19.6304 8.5424C19.3504 8.2704 19.1424 7.9888 18.9808 7.6592C18.92 7.536 18.8944 7.4576 18.8544 7.272C18.8128 7.088 18.8144 7.008 18.8576 6.9264C18.8784 6.8832 18.888 6.88 18.9664 6.88C19.0192 6.88 19.0816 6.8928 19.128 6.9136ZM15.8544 9.3504C15.8848 9.3696 15.8736 9.4176 15.816 9.52C15.7856 9.5744 15.76 9.6224 15.76 9.6272C15.76 9.6432 15.4976 10.0256 15.4272 10.112C15.136 10.472 14.7776 10.7888 14.344 11.0656C14.2496 11.1264 13.7616 11.3744 13.328 11.5808C12.632 11.9152 12.2272 12.2864 11.8336 12.9568C11.7216 13.1472 11.5408 13.496 11.4416 13.712C10.9776 14.7248 10.8192 14.9776 10.3536 15.44C9.83996 15.9488 9.17756 16.384 8.54396 16.6304C8.46076 16.664 8.35516 16.704 8.31196 16.7216C8.26716 16.7376 8.22396 16.752 8.21596 16.752C8.20636 16.752 8.15356 16.7648 8.09596 16.7824C7.81276 16.8672 7.67196 16.8864 7.31996 16.8864C7.01436 16.8864 6.97276 16.8832 6.85596 16.8496C6.67036 16.7952 6.54396 16.7392 6.42236 16.656C6.25436 16.544 6.26076 16.5664 6.23356 16.0864C6.21916 15.856 6.20796 15.5792 6.20796 15.4704C6.20796 15.2224 6.25116 14.4848 6.27196 14.368C6.27996 14.32 6.29596 14.2048 6.30396 14.112C6.31356 14.0192 6.33276 13.904 6.34556 13.8544C6.35676 13.8048 6.36796 13.7424 6.36796 13.7168C6.36796 13.6912 6.37916 13.6272 6.39356 13.576C6.40636 13.5232 6.42716 13.4288 6.43996 13.368C6.49276 13.096 6.61436 12.6624 6.71196 12.4C6.72316 12.3696 6.74716 12.3008 6.76796 12.248C6.91036 11.8608 7.13756 11.4064 7.34076 11.096C7.54556 10.7856 7.85276 10.4464 8.08476 10.2704C8.21436 10.1728 8.46716 10.0192 8.55196 9.9872C8.76956 9.9056 8.85276 9.8816 9.05596 9.848C9.18396 9.8256 9.30876 9.808 9.33596 9.808C9.38076 9.808 9.61276 9.7776 10.008 9.72C10.096 9.7072 10.2432 9.688 10.336 9.6784C10.4288 9.6704 10.5328 9.656 10.568 9.648C10.6032 9.64 10.7152 9.6272 10.8176 9.6176C10.92 9.608 11.0384 9.5936 11.0816 9.5856C11.1248 9.5776 11.2288 9.5664 11.312 9.56C11.3952 9.5536 11.5296 9.5392 11.608 9.528C11.688 9.5168 11.832 9.5024 11.928 9.496C12.0256 9.4912 12.184 9.4768 12.28 9.464C12.3776 9.4512 12.5504 9.4368 12.664 9.432C12.7792 9.4256 12.984 9.4112 13.12 9.4C13.256 9.3872 13.624 9.3696 13.936 9.36C14.248 9.3504 14.5616 9.3408 14.632 9.3376C14.8544 9.3296 15.8368 9.3392 15.8544 9.3504ZM17.304 9.3984C17.4448 9.4112 17.672 9.4256 17.808 9.432C17.944 9.4368 18.1392 9.4512 18.24 9.464C18.3408 9.4752 18.4992 9.4896 18.592 9.496C18.6848 9.5008 18.8464 9.5168 18.952 9.5296C19.0576 9.5424 19.176 9.552 19.2176 9.552C19.2832 9.552 19.3072 9.5632 19.4096 9.6384C19.6368 9.8064 19.936 10 20.2032 10.152C20.3504 10.2368 20.4832 10.3184 20.4976 10.336C20.512 10.352 20.5344 10.4064 20.5504 10.4592C20.5648 10.5104 20.592 10.6016 20.6112 10.664C20.6288 10.7248 20.6528 10.8048 20.664 10.84C20.6768 10.8752 20.7056 10.968 20.7296 11.048C20.7664 11.1744 20.8208 11.3472 20.904 11.6016C20.9376 11.7072 20.936 11.7232 20.8656 11.8064C20.6064 12.1168 20.448 12.5456 20.448 12.9376C20.448 13.272 20.568 13.6432 20.7696 13.9344C20.9456 14.1856 21.2176 14.4384 21.5152 14.6256C21.6208 14.6928 21.952 14.864 21.976 14.864C21.9856 14.864 22.0144 14.8752 22.04 14.8896C22.2032 14.9744 22.664 15.0976 23.016 15.1488C23.1392 15.168 23.3456 15.1856 23.4752 15.1888C23.6032 15.1936 23.7168 15.2016 23.7264 15.2064C23.7344 15.2128 23.7376 15.2288 23.7328 15.2416C23.728 15.256 23.5648 15.3936 23.3696 15.5488C22.9248 15.9024 22.7408 16.064 22.5264 16.2816C22.1392 16.68 21.9152 17.0384 21.792 17.456C21.7152 17.7152 21.6304 17.9792 21.6016 18.048C21.4432 18.4288 21.3712 18.5696 21.2128 18.8032C21.1216 18.9392 21.072 18.9872 21.04 18.968C21.0304 18.9616 21.024 18.8448 21.024 18.6832C21.024 18.5312 21.016 18.3616 21.0064 18.3056C20.976 18.1152 20.8592 17.9792 20.672 17.92C20.5472 17.88 20.5248 17.88 20.3968 17.92C20.2272 17.9728 20.0944 18.112 20.064 18.2688C20.0496 18.352 20.0688 22.0208 20.096 24.072C20.112 25.2768 20.112 25.352 20.0848 25.3712C20.0464 25.4 18.976 25.4016 18.9472 25.3728C18.9328 25.3584 18.928 25.0112 18.928 23.9136C18.9264 23.12 18.92 22.3824 18.912 22.272C18.888 21.9408 18.8496 21.552 18.8416 21.5376C18.8368 21.5296 18.8208 21.4528 18.808 21.3664C18.7632 21.072 18.6464 20.5984 18.5824 20.4512C18.5696 20.4224 18.56 20.3904 18.56 20.3792C18.56 20.3424 18.3984 19.9392 18.2944 19.7152C18.264 19.6512 18.24 19.5968 18.24 19.592C18.24 19.5888 18.2 19.5168 18.152 19.432C18.104 19.3456 18.064 19.272 18.064 19.2672C18.064 19.2592 18.0128 19.176 17.9056 19.008C17.816 18.8688 17.688 18.7008 17.6304 18.6448C17.552 18.5712 17.4064 18.512 17.304 18.512C17.1232 18.512 16.9456 18.6256 16.864 18.792C16.8304 18.8592 16.824 18.8944 16.8256 19.008C16.8272 19.1632 16.8304 19.1728 16.9968 19.4128C17.1376 19.6128 17.312 19.912 17.312 19.9536C17.312 19.9712 17.3024 19.9872 17.2928 19.992C17.2816 19.9952 17.0304 20.0128 16.736 20.0304C16.2992 20.0576 16.0304 20.064 15.288 20.064C14.7872 20.064 14.2496 20.056 14.096 20.048C13.9424 20.0384 13.5984 20.0208 13.3312 20.008C13.064 19.9952 12.84 19.9808 12.8352 19.9776C12.8288 19.9744 12.6944 19.9632 12.536 19.952C12.3776 19.9424 12.1648 19.9248 12.064 19.912C11.9632 19.8992 11.8192 19.8848 11.744 19.88C11.6688 19.8736 11.544 19.8592 11.464 19.8464C11.2672 19.816 11.1856 19.8176 11.0816 19.8576C10.9024 19.9264 10.8064 20.0464 10.6432 20.4C10.5312 20.6464 10.4032 20.9968 10.288 21.376C10.2704 21.4336 10.2416 21.5248 10.224 21.5808C10.2064 21.6352 10.192 21.6928 10.192 21.7072C10.192 21.7216 10.1792 21.7776 10.1616 21.8304C10.112 21.9936 10.0512 22.2576 10.008 22.4944C9.99516 22.5696 9.97756 22.6512 9.96956 22.6784C9.96156 22.7056 9.95036 22.7712 9.94396 22.824C9.93916 22.8768 9.92476 22.9744 9.91196 23.04C9.90076 23.1056 9.88636 23.2096 9.87996 23.272C9.87516 23.3328 9.85916 23.4592 9.84636 23.5504C9.83356 23.6416 9.82076 23.8112 9.81916 23.9264C9.81596 24.1776 9.78396 24.104 10.1712 24.7488C10.2048 24.8048 10.2448 24.8704 10.2592 24.8928C10.2752 24.9168 10.2992 24.9568 10.3136 24.984C10.3616 25.0672 10.5904 25.4048 10.608 25.416C10.616 25.4208 10.624 25.4432 10.624 25.4656V25.504H10.0032C9.43036 25.504 9.37916 25.5024 9.35676 25.4752C9.26876 25.3728 8.77116 24.4272 8.74236 24.3104C8.73596 24.2848 8.72316 24.2464 8.71196 24.224C8.67036 24.1424 8.59036 23.8576 8.53276 23.584C8.50716 23.4592 8.50396 23.2928 8.49596 21.672L8.48796 19.896L8.44476 19.8048C8.42076 19.7552 8.37596 19.688 8.34396 19.656C8.27836 19.592 8.14076 19.5248 8.04156 19.5104C7.87516 19.4864 7.60636 19.3696 7.46396 19.2592C7.10236 18.9776 6.85756 18.624 6.63356 18.0624C6.55836 17.8752 6.54716 17.8176 6.57596 17.8C6.58556 17.7936 6.67356 17.8064 6.77276 17.8272C6.92956 17.8592 6.99836 17.864 7.31996 17.864C7.70076 17.864 7.83676 17.8496 8.15996 17.7744C8.44796 17.7072 8.80636 17.5872 9.09436 17.4592C9.20156 17.4128 9.64156 17.1872 9.73596 17.1312C10.6112 16.6112 11.3248 15.9552 11.7312 15.296C11.856 15.0944 12.0512 14.7168 12.216 14.36C12.4656 13.8208 12.6688 13.4384 12.8288 13.208C12.9312 13.0624 13.1968 12.7888 13.328 12.6928C13.4112 12.632 13.7488 12.432 13.7664 12.432C13.7712 12.432 13.8416 12.4 13.9232 12.3616C14.08 12.288 14.1744 12.2448 14.36 12.1616C14.4224 12.1328 14.4848 12.104 14.4992 12.096C14.5136 12.088 14.5744 12.056 14.6352 12.024C14.9968 11.8352 15.4416 11.5024 15.7904 11.1616C16.224 10.736 16.584 10.2272 16.808 9.7168C16.9616 9.3632 16.9536 9.376 17.016 9.376C17.0336 9.376 17.1632 9.3856 17.304 9.3984ZM24.04 11.6656C24.3152 11.6928 24.672 11.7728 24.8288 11.8416C24.8656 11.8576 24.904 11.872 24.9136 11.872C24.9456 11.872 25.2272 12.0208 25.36 12.1088C25.5376 12.2256 25.7344 12.4288 25.8128 12.5728C25.9008 12.736 25.9264 12.8848 25.896 13.0544C25.8736 13.1872 25.8576 13.224 25.7664 13.368C25.7008 13.472 25.4736 13.6896 25.3424 13.7744C24.9632 14.0208 24.48 14.1712 23.9376 14.2096C23.5264 14.2384 22.9568 14.184 22.696 14.088C22.6608 14.0752 22.6176 14.0656 22.6 14.064C22.5824 14.064 22.5536 14.0544 22.536 14.0416C22.5184 14.0304 22.4848 14.016 22.4608 14.0112C22.4032 13.9968 22.1408 13.8672 22.032 13.8C21.9024 13.7184 21.7152 13.5552 21.6288 13.4496C21.5888 13.3984 21.5264 13.3008 21.4944 13.2336C21.4352 13.1152 21.4336 13.1072 21.432 12.936V12.76L21.5024 12.6192C21.7424 12.136 22.4704 11.7424 23.264 11.6672C23.4848 11.6464 23.8368 11.6448 24.04 11.6656ZM4.22236 19.9792C4.24156 20.0304 4.27196 20.104 4.28796 20.144C4.30396 20.184 4.39196 20.4032 4.47996 20.632C4.56956 20.8608 4.64956 21.0608 4.65756 21.0768C4.69756 21.1536 4.73756 21.2848 4.72476 21.2976C4.70556 21.3168 4.22236 21.4016 4.05756 21.4144C3.99996 21.4176 3.99196 21.3744 4.01276 21.1728C4.02396 21.0688 4.04316 20.84 4.05596 20.664C4.06876 20.488 4.08636 20.2896 4.09596 20.224C4.10396 20.1584 4.11196 20.0624 4.11196 20.0112C4.11196 19.904 4.13436 19.8448 4.16636 19.8704C4.17596 19.8784 4.20156 19.928 4.22236 19.9792ZM20.2 26.4064C20.2144 26.4288 20.2368 26.5024 20.248 26.5728C20.2608 26.6416 20.2816 26.7408 20.2944 26.7936C20.3072 26.8448 20.3328 26.96 20.3504 27.048C20.3696 27.136 20.3984 27.264 20.4144 27.3312C20.4368 27.4256 20.44 27.4608 20.4256 27.48C20.4096 27.5008 20.3248 27.504 19.736 27.5008L19.064 27.496L19.0448 27.224C19.0352 27.0736 19.0192 26.8352 19.0096 26.6912C18.9968 26.5088 18.9968 26.4208 19.008 26.4C19.024 26.3696 19.0448 26.368 19.6 26.368H20.176L20.2 26.4064ZM11.4752 26.6192C11.632 26.8112 11.8048 27.0384 11.936 27.2256C12.0016 27.3184 12.0656 27.4096 12.0784 27.4256C12.0896 27.4416 12.096 27.4672 12.0896 27.48C12.0816 27.5008 11.9744 27.504 11.2256 27.504C10.2896 27.504 10.3328 27.5088 10.3088 27.4112C10.304 27.3872 10.2864 27.3424 10.2688 27.312C10.2528 27.2816 10.24 27.2464 10.24 27.2352C10.24 27.2224 10.2288 27.1936 10.216 27.1712C10.2032 27.1472 10.1744 27.0816 10.1504 27.024C10.128 26.9664 10.0816 26.8608 10.0464 26.7904C10.0128 26.7184 9.98396 26.6528 9.98396 26.6448C9.98396 26.6352 9.97276 26.6192 9.95996 26.608C9.93596 26.5872 9.92796 26.5264 9.94716 26.5072C9.95196 26.5008 10.2768 26.496 10.6656 26.496H11.3744L11.4752 26.6192Z" fill="#6E2E02"/>
<path d="M16.7201 12.3936C16.2833 12.4592 16.0737 12.5168 15.8721 12.6304C15.8321 12.6528 15.7857 12.6784 15.7681 12.6864C15.7185 12.7088 15.5089 12.8704 15.3841 12.9824C15.1633 13.1808 14.7729 13.6832 14.5841 14.0112C14.5745 14.0272 14.5377 14.0896 14.5025 14.152C14.3601 14.3952 14.1905 14.728 14.0513 15.04C14.0337 15.08 14.0017 15.152 13.9793 15.2C13.9009 15.376 13.7217 15.8432 13.6641 16.024C13.6433 16.0848 13.6161 16.1712 13.6001 16.216C13.5665 16.3152 13.5185 16.4784 13.4721 16.656C13.4529 16.7312 13.4273 16.832 13.4145 16.88C13.3681 17.056 13.3281 17.3904 13.3281 17.5872C13.3281 17.7936 13.3617 17.9888 13.4241 18.1552C13.5089 18.3824 13.7073 18.5936 13.9361 18.7008C14.1681 18.808 14.5473 18.8336 14.8433 18.7616C15.0417 18.712 15.1121 18.6864 15.2801 18.6032C15.6113 18.4384 15.9249 18.1904 16.4961 17.64C16.9425 17.2096 17.0881 17.0896 17.3361 16.9504C17.5169 16.8496 17.7713 16.7536 18.0641 16.68C18.1441 16.6592 18.1953 16.6448 18.4561 16.5696C18.9105 16.44 19.3009 16.2192 19.5713 15.9408C19.6497 15.8592 19.8529 15.5936 19.8689 15.552C19.8737 15.5392 19.8865 15.5168 19.8961 15.504C19.9073 15.4912 19.9361 15.44 19.9601 15.392C19.9841 15.344 20.0081 15.2928 20.0161 15.2784C20.0513 15.2128 20.1121 15.0048 20.1265 14.9008C20.1489 14.7568 20.1489 14.5392 20.1281 14.392C20.0577 13.9088 19.6657 13.3776 19.1633 13.0864C19.1105 13.056 19.0465 13.0192 19.0193 13.0016C18.9601 12.9664 18.6817 12.8272 18.5761 12.7792C18.5361 12.7616 18.4833 12.7376 18.4561 12.7248C18.4305 12.7136 18.3873 12.6976 18.3601 12.688C18.3345 12.68 18.2625 12.6544 18.2001 12.632C18.1393 12.608 18.0625 12.5824 18.0321 12.5744C18.0017 12.5664 17.9409 12.5488 17.8961 12.536C17.8529 12.5232 17.7553 12.4976 17.6801 12.48C17.5553 12.4512 17.4801 12.44 17.1601 12.4C17.0497 12.3856 16.7985 12.3824 16.7201 12.3936ZM17.3041 13.4032C17.5553 13.4464 17.8849 13.5392 17.9873 13.5936C18.0097 13.6064 18.0369 13.616 18.0481 13.616C18.0833 13.616 18.4929 13.8224 18.6433 13.9152C18.8129 14.0208 19.0129 14.2096 19.0769 14.3264C19.1281 14.4192 19.1681 14.5632 19.1681 14.656C19.1681 14.7328 19.1281 14.8848 19.0913 14.944C18.9697 15.1424 18.8801 15.2528 18.7473 15.3584C18.5633 15.504 18.3553 15.5904 17.8641 15.728C17.6369 15.7904 17.5137 15.8272 17.4641 15.848C17.4369 15.8592 17.3905 15.8736 17.3601 15.88C17.3297 15.8864 17.2865 15.9008 17.2641 15.912C17.2417 15.9232 17.1809 15.9488 17.1281 15.968C17.0017 16.016 16.8049 16.1216 16.6529 16.2224C16.4097 16.384 16.1761 16.5856 15.6497 17.0928C15.2545 17.4736 15.0593 17.624 14.8049 17.7456C14.6785 17.8064 14.6497 17.8144 14.5201 17.8208C14.3185 17.8288 14.3137 17.8256 14.3073 17.6112C14.2993 17.3952 14.3329 17.1968 14.4321 16.848C14.4497 16.7824 14.4753 16.6912 14.4881 16.648C14.5153 16.5536 14.5553 16.4304 14.5841 16.352C14.5953 16.3216 14.6401 16.1984 14.6817 16.08C14.7233 15.9616 14.7681 15.8496 14.7793 15.832C14.7905 15.8144 14.8001 15.792 14.8001 15.7792C14.8001 15.768 14.8193 15.7168 14.8417 15.6672C14.8641 15.6176 14.8929 15.5536 14.9041 15.528C15.3505 14.5184 15.8705 13.7616 16.2897 13.5152C16.5361 13.3712 16.8945 13.3312 17.3041 13.4032Z" fill="#6E2E02"/>
</svg>
