<svg width="32" height="32" viewBox="0 0 32 32" fill="none" xmlns="http://www.w3.org/2000/svg">
<g clip-path="url(#clip0_725_7955)">
<path opacity="0.933" fill-rule="evenodd" clip-rule="evenodd" d="M31.9688 10.2188C31.9688 10.5938 31.9688 10.9688 31.9688 11.3438C31.7852 11.9066 31.4311 12.3337 30.9062 12.625C30.0656 12.8671 29.2323 13.1275 28.4062 13.4063C28.0563 14.5916 27.7126 15.7791 27.375 16.9688C26.7516 18.5921 25.6266 19.7171 24 20.3438C23.9583 22.0104 23.9583 23.6771 24 25.3438C24.3281 25.8123 24.6406 26.2914 24.9375 26.7813C25.0236 27.0561 24.9508 27.2749 24.7188 27.4375C22.9062 27.4792 21.0938 27.4792 19.2812 27.4375C19.1918 27.4084 19.1189 27.3563 19.0625 27.2813C18.9802 25.5158 18.9385 23.745 18.9375 21.9688C18.8557 21.7438 18.7619 21.5251 18.6562 21.3125C16.9945 21.3493 15.3278 21.2868 13.6562 21.125C12.3514 20.9733 11.0911 20.6504 9.875 20.1563C9.68706 20.3233 9.56206 20.5317 9.5 20.7813C9.45831 22.3229 9.45831 23.8646 9.5 25.4063C9.82806 25.8748 10.1406 26.3539 10.4375 26.8438C10.5036 27.1179 10.4098 27.3158 10.1562 27.4375C8.34375 27.4792 6.53125 27.4792 4.71875 27.4375C4.625 27.3854 4.55208 27.3125 4.5 27.2188C4.47917 25.4896 4.45833 23.7604 4.4375 22.0313C4.04167 20.7188 3.64583 19.4063 3.25 18.0938C3.14258 17.6608 3.05925 17.2233 3 16.7813C2.95833 15.2813 2.95833 13.7813 3 12.2813C3.03943 12.1004 3.09151 11.9234 3.15625 11.75C3.13542 11.7188 3.11458 11.6875 3.09375 11.6563C2.53666 11.9322 2.17208 12.3697 2 12.9688C1.97917 15.2396 1.95833 17.5104 1.9375 19.7813C1.82151 20.8153 1.39443 21.7008 0.65625 22.4375C0.369745 22.5211 0.140578 22.4482 -0.03125 22.2188C-0.03125 22.0521 -0.03125 21.8854 -0.03125 21.7188C0.331031 21.261 0.633112 20.761 0.875 20.2188C0.895831 20.0729 0.916669 19.9271 0.9375 19.7813C0.958331 17.4688 0.979169 15.1563 1 12.8438C1.41071 11.329 2.4003 10.5269 3.96875 10.4375C4.50815 9.95944 5.13315 9.64694 5.84375 9.5C10.5331 9.49888 15.2206 9.45719 19.9062 9.375C20.7127 9.05513 21.5044 8.701 22.2812 8.3125C21.9449 7.95525 21.6846 7.549 21.5 7.09375C21.4401 6.84869 21.513 6.65075 21.7188 6.5C22.3864 6.4895 23.0531 6.45825 23.7188 6.40625C23.4903 5.88739 23.4174 5.34573 23.5 4.78125C23.5827 4.56268 23.7389 4.45851 23.9688 4.46875C24.1204 4.46272 24.2558 4.50439 24.375 4.59375C24.452 4.92004 24.4937 5.25338 24.5 5.59375C24.5641 5.85761 24.6996 6.07636 24.9062 6.25C24.9583 6.293 24.9999 6.28256 25.0312 6.21875C24.9408 5.86068 24.9512 5.50651 25.0625 5.15625C25.2949 4.94361 25.5554 4.91236 25.8438 5.0625C25.8829 5.1094 25.9141 5.16149 25.9375 5.21875C25.9583 5.51042 25.9792 5.80208 26 6.09375C26.0281 6.21994 26.0802 6.3345 26.1562 6.4375C26.5529 6.52631 26.9279 6.67213 27.2812 6.875C28.8723 7.961 30.4348 9.07563 31.9688 10.2188ZM22.9688 7.46875C24.0314 7.45831 25.0939 7.46875 26.1562 7.5C26.2812 7.54169 26.4062 7.58331 26.5312 7.625C28.0312 8.66669 29.5312 9.70831 31.0312 10.75C31.0026 11.099 30.8568 11.3907 30.5938 11.625C29.6664 11.9454 28.7289 12.2371 27.7812 12.5C27.6918 12.5291 27.6189 12.5812 27.5625 12.6563C27.1653 14.0786 26.7486 15.4953 26.3125 16.9063C25.8333 17.9688 25.0625 18.7396 24 19.2188C23.9619 18.9853 23.9827 18.7561 24.0625 18.5313C24.3387 18.083 24.6303 17.6455 24.9375 17.2188C25.0168 16.5894 24.7564 16.3707 24.1562 16.5625C23.875 16.9688 23.5938 17.375 23.3125 17.7813C23.1462 18.0509 23.0421 18.3426 23 18.6563C22.9583 20.9688 22.9583 23.2813 23 25.5938C23.1504 25.8904 23.3275 26.1716 23.5312 26.4375C23.0108 26.4688 22.49 26.4791 21.9688 26.4688C21.9792 24.8853 21.9688 23.3019 21.9375 21.7188C21.4877 20.5569 21.0502 19.3903 20.625 18.2188C20.5512 17.9773 20.4366 17.7586 20.2812 17.5625C19.6694 17.3724 19.4194 17.5912 19.5312 18.2188C18.9536 18.4576 18.3703 18.4681 17.7812 18.25C17.3229 18.0625 16.8646 17.875 16.4062 17.6875C14.7096 17.6238 13.8971 18.4467 13.9688 20.1563C12.2547 19.9831 10.6505 19.4727 9.15625 18.625C8.85063 18.4404 8.57981 18.2112 8.34375 17.9375C8.56475 17.6727 8.76262 17.3914 8.9375 17.0938C8.968 16.5832 8.72838 16.3853 8.21875 16.5C7.70525 17.1176 7.21569 17.753 6.75 18.4063C6.64175 18.6477 6.55837 18.8977 6.5 19.1563C6.45831 21.3438 6.45831 23.5313 6.5 25.7188C6.65625 25.9583 6.8125 26.1979 6.96875 26.4375C6.46919 26.4688 5.96918 26.4791 5.46875 26.4688C5.47916 24.9269 5.46875 23.3853 5.4375 21.8438C5.17076 20.9706 4.91034 20.0956 4.65625 19.2188C4.84861 19.0488 5.05694 18.8925 5.28125 18.75C5.60484 18.4259 5.82359 18.0405 5.9375 17.5938C5.97259 17.1113 5.97259 16.6321 5.9375 16.1563C6.02861 16.0025 6.14319 15.8671 6.28125 15.75C6.75269 15.489 7.11731 15.1244 7.375 14.6563C7.59094 13.9083 7.393 13.2936 6.78125 12.8125C6.35425 12.4839 5.87508 12.3172 5.34375 12.3125C5.02905 12.5008 4.95613 12.7613 5.125 13.0938C5.46385 13.2788 5.8076 13.4559 6.15625 13.625C6.45869 13.8259 6.53162 14.0863 6.375 14.4063C5.8615 14.7156 5.424 15.1114 5.0625 15.5938C4.99081 15.7972 4.93872 16.0055 4.90625 16.2188C4.97126 16.6131 4.98168 17.0089 4.9375 17.4063C4.84042 17.726 4.65292 17.976 4.375 18.1563C4.17242 17.6793 4.04742 17.1793 4 16.6563C3.95833 15.2604 3.95833 13.8646 4 12.4688C4.28125 11.4375 4.9375 10.7813 5.96875 10.5C7.32294 10.4583 8.67706 10.4583 10.0312 10.5C10.6602 10.5899 11.1498 10.8919 11.5 11.4063C11.5417 11.5938 11.5417 11.7813 11.5 11.9688C11.2292 12.3646 10.9583 12.7604 10.6875 13.1563C10.1441 14.0621 10.0191 15.0204 10.3125 16.0313C10.8219 16.9336 11.6032 17.4023 12.6562 17.4375C13.4362 17.5566 14.1446 17.39 14.7812 16.9375C15.0439 16.6958 15.2834 16.4354 15.5 16.1563C15.8296 15.5977 16.1838 15.0561 16.5625 14.5313C17.1204 13.8928 17.8184 13.6324 18.6562 13.75C18.7812 13.8125 18.9062 13.875 19.0312 13.9375C19.3382 14.3073 19.6716 14.6614 20.0312 15C21.5244 15.6346 22.6182 15.2076 23.3125 13.7188C23.4927 13.1206 23.5136 12.5164 23.375 11.9063C22.9429 11.5466 22.62 11.6299 22.4062 12.1563C22.6424 13.1736 22.2882 13.8923 21.3438 14.3125C21.0968 14.3695 20.8676 14.3278 20.6562 14.1875C20.3914 13.9075 20.1414 13.6158 19.9062 13.3125C19.0243 12.6681 18.0659 12.5431 17.0312 12.9375C16.5721 13.1673 16.1659 13.4694 15.8125 13.8438C15.3648 14.4473 14.9481 15.0723 14.5625 15.7188C14.0945 16.3329 13.4799 16.5725 12.7188 16.4375C11.3403 16.2741 10.8715 15.5346 11.3125 14.2188C11.5417 13.7181 11.8334 13.2598 12.1875 12.8438C12.5084 12.3455 12.6126 11.8039 12.5 11.2188C12.4208 10.9457 12.2854 10.7061 12.0938 10.5C14.5938 10.4792 17.0938 10.4583 19.5938 10.4375C20.0963 10.3846 20.5754 10.2491 21.0312 10.0313C21.2512 10.2616 21.4596 10.5012 21.6562 10.75C22.3125 10.9271 22.5521 10.6875 22.375 10.0313C22.2604 9.88544 22.1458 9.73956 22.0312 9.59375C22.4179 9.39006 22.8137 9.20256 23.2188 9.03125C23.6346 9.20806 24.0616 9.35388 24.5 9.46875C24.9758 9.31219 25.0904 9.01013 24.8438 8.5625C24.1618 8.39138 23.5577 8.07888 23.0312 7.625C22.9842 7.58306 22.9634 7.531 22.9688 7.46875ZM15.6562 18.6563C15.8449 18.6459 16.0324 18.6564 16.2188 18.6875C17.0893 19.2001 18.0268 19.4293 19.0312 19.375C19.2976 19.3518 19.5581 19.2998 19.8125 19.2188C19.8608 19.2278 19.9024 19.2486 19.9375 19.2813C20.0139 19.5381 20.1076 19.7881 20.2188 20.0313C20.2057 20.0679 20.1848 20.0991 20.1562 20.125C18.4692 20.2991 16.7817 20.3408 15.0938 20.25C14.8302 19.5585 15.0177 19.0273 15.6562 18.6563ZM7.71875 18.7813C8.09025 19.1131 8.48606 19.4152 8.90625 19.6875C8.71069 19.9849 8.57525 20.3079 8.5 20.6563C8.45831 22.3438 8.45831 24.0313 8.5 25.7188C8.65625 25.9479 8.8125 26.1771 8.96875 26.4063C8.72131 26.4788 8.47131 26.4892 8.21875 26.4375C7.97144 26.0992 7.73187 25.7554 7.5 25.4063C7.45831 23.3646 7.45831 21.3229 7.5 19.2813C7.55662 19.1056 7.62956 18.939 7.71875 18.7813ZM20.1562 21.0938C20.3199 21.077 20.4762 21.0978 20.625 21.1563C20.7292 21.4271 20.8333 21.6979 20.9375 21.9688C20.9688 23.4686 20.9792 24.9686 20.9688 26.4688C20.6354 26.4688 20.3021 26.4688 19.9688 26.4688C19.9792 24.9061 19.9688 23.3436 19.9375 21.7813C19.8829 21.5864 19.8101 21.3989 19.7188 21.2188C19.8731 21.177 20.0189 21.1353 20.1562 21.0938Z" fill="black"/>
<path opacity="0.86" fill-rule="evenodd" clip-rule="evenodd" d="M26.281 8.96875C26.8609 8.8985 27.0797 9.1485 26.9373 9.71875C26.6456 10.0521 26.354 10.0521 26.0623 9.71875C25.9274 9.40512 26.0002 9.15512 26.281 8.96875Z" fill="black"/>
</g>
<defs>
<clipPath id="clip0_725_7955">
<rect width="32" height="32" fill="white"/>
</clipPath>
</defs>
</svg>
